<svg xmlns="http://www.w3.org/2000/svg" viewBox="0 0 560 240" width="560" height="240" shape-rendering="crispEdges"><rect width="560" height="240" fill="#170f0e"/><rect y="108" width="560" height="132" fill="#20110c"/><rect y="188" width="560" height="52" fill="#140b09"/><rect y="186" width="560" height="2" fill="#3d1a10"/><rect x="254" y="-2" width="8" height="4" fill="#0b0908"/><rect x="250" y="2" width="4" height="4" fill="#0b0908"/><rect x="254" y="2" width="4" height="4" fill="#cdd3d8"/><rect x="258" y="2" width="4" height="4" fill="#8f979d"/><rect x="262" y="2" width="4" height="4" fill="#0b0908"/><rect x="250" y="6" width="4" height="4" fill="#0b0908"/><rect x="254" y="6" width="4" height="4" fill="#cdd3d8"/><rect x="258" y="6" width="4" height="4" fill="#8f979d"/><rect x="262" y="6" width="4" height="4" fill="#0b0908"/><rect x="246" y="10" width="4" height="4" fill="#0b0908"/><rect x="250" y="10" width="4" height="4" fill="#cdd3d8"/><rect x="254" y="10" width="4" height="4" fill="#8f979d"/><rect x="258" y="10" width="4" height="4" fill="#0b0908"/><rect x="246" y="14" width="4" height="4" fill="#0b0908"/><rect x="250" y="14" width="4" height="4" fill="#cdd3d8"/><rect x="254" y="14" width="4" height="4" fill="#8f979d"/><rect x="258" y="14" width="4" height="4" fill="#0b0908"/><rect x="242" y="18" width="4" height="4" fill="#0b0908"/><rect x="246" y="18" width="4" height="4" fill="#cdd3d8"/><rect x="250" y="18" width="4" height="4" fill="#8f979d"/><rect x="254" y="18" width="4" height="4" fill="#0b0908"/><rect x="242" y="22" width="4" height="4" fill="#0b0908"/><rect x="246" y="22" width="4" height="4" fill="#cdd3d8"/><rect x="250" y="22" width="4" height="4" fill="#8f979d"/><rect x="254" y="22" width="4" height="4" fill="#0b0908"/><rect x="182" y="26" width="8" height="4" fill="#0b0908"/><rect x="242" y="26" width="4" height="4" fill="#0b0908"/><rect x="246" y="26" width="4" height="4" fill="#cdd3d8"/><rect x="250" y="26" width="4" height="4" fill="#8f979d"/><rect x="254" y="26" width="4" height="4" fill="#0b0908"/><rect x="174" y="30" width="8" height="4" fill="#0b0908"/><rect x="182" y="30" width="8" height="4" fill="#a8925f"/><rect x="190" y="30" width="8" height="4" fill="#0b0908"/><rect x="238" y="30" width="4" height="4" fill="#0b0908"/><rect x="242" y="30" width="4" height="4" fill="#cdd3d8"/><rect x="246" y="30" width="4" height="4" fill="#8f979d"/><rect x="250" y="30" width="4" height="4" fill="#0b0908"/><rect x="166" y="34" width="8" height="4" fill="#0b0908"/><rect x="174" y="34" width="24" height="4" fill="#a8925f"/><rect x="198" y="34" width="8" height="4" fill="#0b0908"/><rect x="238" y="34" width="4" height="4" fill="#0b0908"/><rect x="242" y="34" width="4" height="4" fill="#cdd3d8"/><rect x="246" y="34" width="4" height="4" fill="#8f979d"/><rect x="250" y="34" width="4" height="4" fill="#0b0908"/><rect x="162" y="38" width="4" height="4" fill="#0b0908"/><rect x="166" y="38" width="40" height="4" fill="#a8925f"/><rect x="206" y="38" width="4" height="4" fill="#0b0908"/><rect x="234" y="38" width="4" height="4" fill="#0b0908"/><rect x="238" y="38" width="4" height="4" fill="#cdd3d8"/><rect x="242" y="38" width="4" height="4" fill="#8f979d"/><rect x="246" y="38" width="4" height="4" fill="#0b0908"/><rect x="158" y="42" width="4" height="4" fill="#0b0908"/><rect x="162" y="42" width="8" height="4" fill="#a8925f"/><rect x="170" y="42" width="4" height="4" fill="#7a693f"/><rect x="174" y="42" width="24" height="4" fill="#a8925f"/><rect x="198" y="42" width="4" height="4" fill="#7a693f"/><rect x="202" y="42" width="8" height="4" fill="#a8925f"/><rect x="210" y="42" width="4" height="4" fill="#0b0908"/><rect x="234" y="42" width="4" height="4" fill="#0b0908"/><rect x="238" y="42" width="4" height="4" fill="#cdd3d8"/><rect x="242" y="42" width="4" height="4" fill="#8f979d"/><rect x="246" y="42" width="4" height="4" fill="#0b0908"/><rect x="158" y="46" width="4" height="4" fill="#0b0908"/><rect x="162" y="46" width="8" height="4" fill="#7a693f"/><rect x="170" y="46" width="8" height="4" fill="#181211"/><rect x="178" y="46" width="16" height="4" fill="#2e2422"/><rect x="194" y="46" width="8" height="4" fill="#181211"/><rect x="202" y="46" width="8" height="4" fill="#7a693f"/><rect x="210" y="46" width="4" height="4" fill="#0b0908"/><rect x="234" y="46" width="4" height="4" fill="#0b0908"/><rect x="238" y="46" width="4" height="4" fill="#cdd3d8"/><rect x="242" y="46" width="4" height="4" fill="#8f979d"/><rect x="246" y="46" width="4" height="4" fill="#0b0908"/><rect x="162" y="50" width="4" height="4" fill="#0b0908"/><rect x="166" y="50" width="8" height="4" fill="#181211"/><rect x="174" y="50" width="24" height="4" fill="#2e2422"/><rect x="198" y="50" width="8" height="4" fill="#181211"/><rect x="206" y="50" width="4" height="4" fill="#0b0908"/><rect x="230" y="50" width="4" height="4" fill="#0b0908"/><rect x="234" y="50" width="4" height="4" fill="#cdd3d8"/><rect x="238" y="50" width="4" height="4" fill="#8f979d"/><rect x="242" y="50" width="4" height="4" fill="#0b0908"/><rect x="162" y="54" width="4" height="4" fill="#0b0908"/><rect x="166" y="54" width="4" height="4" fill="#181211"/><rect x="170" y="54" width="32" height="4" fill="#d2ab84"/><rect x="202" y="54" width="4" height="4" fill="#181211"/><rect x="206" y="54" width="4" height="4" fill="#0b0908"/><rect x="230" y="54" width="4" height="4" fill="#0b0908"/><rect x="234" y="54" width="4" height="4" fill="#cdd3d8"/><rect x="238" y="54" width="4" height="4" fill="#8f979d"/><rect x="242" y="54" width="4" height="4" fill="#0b0908"/><rect x="162" y="58" width="4" height="4" fill="#0b0908"/><rect x="166" y="58" width="4" height="4" fill="#181211"/><rect x="170" y="58" width="32" height="4" fill="#d2ab84"/><rect x="202" y="58" width="4" height="4" fill="#181211"/><rect x="206" y="58" width="4" height="4" fill="#0b0908"/><rect x="234" y="58" width="4" height="4" fill="#0b0908"/><rect x="238" y="58" width="4" height="4" fill="#cdd3d8"/><rect x="242" y="58" width="4" height="4" fill="#8f979d"/><rect x="246" y="58" width="4" height="4" fill="#0b0908"/><rect x="162" y="62" width="4" height="4" fill="#0b0908"/><rect x="166" y="62" width="8" height="4" fill="#d2ab84"/><rect x="174" y="62" width="4" height="4" fill="#e8e2d0"/><rect x="178" y="62" width="4" height="4" fill="#a8815d"/><rect x="182" y="62" width="8" height="4" fill="#d2ab84"/><rect x="190" y="62" width="4" height="4" fill="#a8815d"/><rect x="194" y="62" width="4" height="4" fill="#e8e2d0"/><rect x="198" y="62" width="8" height="4" fill="#d2ab84"/><rect x="206" y="62" width="4" height="4" fill="#0b0908"/><rect x="230" y="62" width="4" height="4" fill="#0b0908"/><rect x="234" y="62" width="4" height="4" fill="#cdd3d8"/><rect x="238" y="62" width="4" height="4" fill="#8f979d"/><rect x="242" y="62" width="4" height="4" fill="#0b0908"/><rect x="162" y="66" width="4" height="4" fill="#0b0908"/><rect x="166" y="66" width="40" height="4" fill="#d2ab84"/><rect x="206" y="66" width="4" height="4" fill="#0b0908"/><rect x="230" y="66" width="4" height="4" fill="#0b0908"/><rect x="234" y="66" width="4" height="4" fill="#cdd3d8"/><rect x="238" y="66" width="4" height="4" fill="#8f979d"/><rect x="242" y="66" width="4" height="4" fill="#0b0908"/><rect x="166" y="70" width="4" height="4" fill="#0b0908"/><rect x="170" y="70" width="8" height="4" fill="#d2ab84"/><rect x="178" y="70" width="16" height="4" fill="#a8815d"/><rect x="194" y="70" width="8" height="4" fill="#d2ab84"/><rect x="202" y="70" width="4" height="4" fill="#0b0908"/><rect x="226" y="70" width="4" height="4" fill="#0b0908"/><rect x="230" y="70" width="4" height="4" fill="#cdd3d8"/><rect x="234" y="70" width="4" height="4" fill="#8f979d"/><rect x="238" y="70" width="4" height="4" fill="#0b0908"/><rect x="170" y="74" width="4" height="4" fill="#0b0908"/><rect x="174" y="74" width="24" height="4" fill="#d2ab84"/><rect x="198" y="74" width="4" height="4" fill="#0b0908"/><rect x="226" y="74" width="4" height="4" fill="#0b0908"/><rect x="230" y="74" width="4" height="4" fill="#cdd3d8"/><rect x="234" y="74" width="4" height="4" fill="#8f979d"/><rect x="238" y="74" width="4" height="4" fill="#0b0908"/><rect x="170" y="78" width="8" height="4" fill="#0b0908"/><rect x="178" y="78" width="16" height="4" fill="#a8815d"/><rect x="194" y="78" width="8" height="4" fill="#0b0908"/><rect x="226" y="78" width="4" height="4" fill="#0b0908"/><rect x="230" y="78" width="4" height="4" fill="#cdd3d8"/><rect x="234" y="78" width="4" height="4" fill="#8f979d"/><rect x="238" y="78" width="4" height="4" fill="#0b0908"/><rect x="154" y="82" width="16" height="4" fill="#0b0908"/><rect x="170" y="82" width="32" height="4" fill="#5d5346"/><rect x="202" y="82" width="16" height="4" fill="#0b0908"/><rect x="222" y="82" width="4" height="4" fill="#0b0908"/><rect x="226" y="82" width="4" height="4" fill="#cdd3d8"/><rect x="230" y="82" width="4" height="4" fill="#8f979d"/><rect x="234" y="82" width="4" height="4" fill="#0b0908"/><rect x="146" y="86" width="8" height="4" fill="#0b0908"/><rect x="154" y="86" width="4" height="4" fill="#4a4d51"/><rect x="158" y="86" width="8" height="4" fill="#6f7378"/><rect x="166" y="86" width="4" height="4" fill="#4a4d51"/><rect x="170" y="86" width="32" height="4" fill="#6f7378"/><rect x="202" y="86" width="4" height="4" fill="#4a4d51"/><rect x="206" y="86" width="12" height="4" fill="#5d5346"/><rect x="218" y="86" width="8" height="4" fill="#0b0908"/><rect x="226" y="86" width="4" height="4" fill="#cdd3d8"/><rect x="230" y="86" width="4" height="4" fill="#8f979d"/><rect x="234" y="86" width="4" height="4" fill="#0b0908"/><rect x="142" y="90" width="4" height="4" fill="#0b0908"/><rect x="146" y="90" width="4" height="4" fill="#443c33"/><rect x="150" y="90" width="4" height="4" fill="#4a4d51"/><rect x="154" y="90" width="16" height="4" fill="#6f7378"/><rect x="170" y="90" width="8" height="4" fill="#4a4d51"/><rect x="178" y="90" width="16" height="4" fill="#6f7378"/><rect x="194" y="90" width="8" height="4" fill="#4a4d51"/><rect x="202" y="90" width="4" height="4" fill="#6f7378"/><rect x="206" y="90" width="4" height="4" fill="#5d5346"/><rect x="210" y="90" width="4" height="4" fill="#443c33"/><rect x="214" y="90" width="4" height="4" fill="#5d5346"/><rect x="218" y="90" width="16" height="4" fill="#b8912f"/><rect x="234" y="90" width="4" height="4" fill="#0b0908"/><rect x="142" y="94" width="4" height="4" fill="#0b0908"/><rect x="146" y="94" width="4" height="4" fill="#443c33"/><rect x="150" y="94" width="8" height="4" fill="#6f7378"/><rect x="158" y="94" width="8" height="4" fill="#b8912f"/><rect x="166" y="94" width="40" height="4" fill="#6f7378"/><rect x="206" y="94" width="12" height="4" fill="#5d5346"/><rect x="218" y="94" width="4" height="4" fill="#2e2422"/><rect x="222" y="94" width="4" height="4" fill="#181211"/><rect x="226" y="94" width="4" height="4" fill="#2e2422"/><rect x="230" y="94" width="4" height="4" fill="#0b0908"/><rect x="142" y="98" width="4" height="4" fill="#0b0908"/><rect x="146" y="98" width="4" height="4" fill="#443c33"/><rect x="150" y="98" width="4" height="4" fill="#4a4d51"/><rect x="154" y="98" width="16" height="4" fill="#6f7378"/><rect x="170" y="98" width="4" height="4" fill="#4a4d51"/><rect x="174" y="98" width="24" height="4" fill="#6f7378"/><rect x="198" y="98" width="4" height="4" fill="#4a4d51"/><rect x="202" y="98" width="4" height="4" fill="#6f7378"/><rect x="206" y="98" width="4" height="4" fill="#5d5346"/><rect x="210" y="98" width="4" height="4" fill="#443c33"/><rect x="214" y="98" width="4" height="4" fill="#5d5346"/><rect x="218" y="98" width="4" height="4" fill="#2e2422"/><rect x="222" y="98" width="4" height="4" fill="#181211"/><rect x="226" y="98" width="4" height="4" fill="#2e2422"/><rect x="230" y="98" width="4" height="4" fill="#0b0908"/><rect x="142" y="102" width="4" height="4" fill="#0b0908"/><rect x="146" y="102" width="4" height="4" fill="#443c33"/><rect x="150" y="102" width="4" height="4" fill="#2c2721"/><rect x="154" y="102" width="16" height="4" fill="#4a4d51"/><rect x="170" y="102" width="8" height="4" fill="#6f7378"/><rect x="178" y="102" width="12" height="4" fill="#b8912f"/><rect x="190" y="102" width="12" height="4" fill="#6f7378"/><rect x="202" y="102" width="4" height="4" fill="#4a4d51"/><rect x="206" y="102" width="12" height="4" fill="#d2ab84"/><rect x="218" y="102" width="4" height="4" fill="#181211"/><rect x="222" y="102" width="4" height="4" fill="#2e2422"/><rect x="226" y="102" width="4" height="4" fill="#0b0908"/><rect x="142" y="106" width="4" height="4" fill="#0b0908"/><rect x="146" y="106" width="12" height="4" fill="#a8815d"/><rect x="158" y="106" width="8" height="4" fill="#0b0908"/><rect x="166" y="106" width="40" height="4" fill="#6f7378"/><rect x="206" y="106" width="4" height="4" fill="#d2ab84"/><rect x="210" y="106" width="4" height="4" fill="#a8815d"/><rect x="214" y="106" width="4" height="4" fill="#d2ab84"/><rect x="218" y="106" width="4" height="4" fill="#181211"/><rect x="222" y="106" width="4" height="4" fill="#2e2422"/><rect x="226" y="106" width="4" height="4" fill="#0b0908"/><rect x="142" y="110" width="4" height="4" fill="#0b0908"/><rect x="146" y="110" width="12" height="4" fill="#a8815d"/><rect x="158" y="110" width="8" height="4" fill="#0b0908"/><rect x="166" y="110" width="4" height="4" fill="#6f7378"/><rect x="170" y="110" width="4" height="4" fill="#4a4d51"/><rect x="174" y="110" width="24" height="4" fill="#6f7378"/><rect x="198" y="110" width="4" height="4" fill="#4a4d51"/><rect x="202" y="110" width="4" height="4" fill="#6f7378"/><rect x="206" y="110" width="4" height="4" fill="#0b0908"/><rect x="210" y="110" width="4" height="4" fill="#2e2422"/><rect x="214" y="110" width="4" height="4" fill="#181211"/><rect x="218" y="110" width="4" height="4" fill="#2e2422"/><rect x="222" y="110" width="4" height="4" fill="#0b0908"/><rect x="146" y="114" width="12" height="4" fill="#0b0908"/><rect x="162" y="114" width="4" height="4" fill="#0b0908"/><rect x="166" y="114" width="4" height="4" fill="#5d5346"/><rect x="170" y="114" width="4" height="4" fill="#4a4d51"/><rect x="174" y="114" width="24" height="4" fill="#6f7378"/><rect x="198" y="114" width="4" height="4" fill="#4a4d51"/><rect x="202" y="114" width="4" height="4" fill="#5d5346"/><rect x="206" y="114" width="16" height="4" fill="#0b0908"/><rect x="166" y="118" width="4" height="4" fill="#0b0908"/><rect x="170" y="118" width="8" height="4" fill="#5d5346"/><rect x="178" y="118" width="8" height="4" fill="#2c2721"/><rect x="186" y="118" width="16" height="4" fill="#5d5346"/><rect x="202" y="118" width="4" height="4" fill="#0b0908"/><rect x="170" y="122" width="32" height="4" fill="#0b0908"/><rect x="154" y="142" width="12" height="4" fill="#0b0908"/><rect x="206" y="142" width="12" height="4" fill="#0b0908"/><rect x="150" y="146" width="4" height="4" fill="#0b0908"/><rect x="154" y="146" width="12" height="4" fill="#443c33"/><rect x="166" y="146" width="4" height="4" fill="#0b0908"/><rect x="202" y="146" width="4" height="4" fill="#0b0908"/><rect x="206" y="146" width="12" height="4" fill="#5d5346"/><rect x="218" y="146" width="4" height="4" fill="#0b0908"/><rect x="150" y="150" width="4" height="4" fill="#0b0908"/><rect x="154" y="150" width="4" height="4" fill="#443c33"/><rect x="158" y="150" width="4" height="4" fill="#2c2721"/><rect x="162" y="150" width="4" height="4" fill="#443c33"/><rect x="166" y="150" width="4" height="4" fill="#0b0908"/><rect x="198" y="150" width="4" height="4" fill="#0b0908"/><rect x="202" y="150" width="4" height="4" fill="#5d5346"/><rect x="206" y="150" width="4" height="4" fill="#443c33"/><rect x="210" y="150" width="4" height="4" fill="#5d5346"/><rect x="214" y="150" width="4" height="4" fill="#0b0908"/><rect x="150" y="154" width="4" height="4" fill="#0b0908"/><rect x="154" y="154" width="12" height="4" fill="#443c33"/><rect x="166" y="154" width="4" height="4" fill="#0b0908"/><rect x="198" y="154" width="4" height="4" fill="#0b0908"/><rect x="202" y="154" width="12" height="4" fill="#5d5346"/><rect x="214" y="154" width="4" height="4" fill="#0b0908"/><rect x="150" y="158" width="4" height="4" fill="#0b0908"/><rect x="154" y="158" width="8" height="4" fill="#2c2721"/><rect x="162" y="158" width="4" height="4" fill="#443c33"/><rect x="166" y="158" width="4" height="4" fill="#0b0908"/><rect x="198" y="158" width="4" height="4" fill="#0b0908"/><rect x="202" y="158" width="8" height="4" fill="#443c33"/><rect x="210" y="158" width="4" height="4" fill="#5d5346"/><rect x="214" y="158" width="4" height="4" fill="#0b0908"/><rect x="154" y="162" width="4" height="4" fill="#0b0908"/><rect x="158" y="162" width="12" height="4" fill="#2c2721"/><rect x="170" y="162" width="4" height="4" fill="#0b0908"/><rect x="198" y="162" width="4" height="4" fill="#0b0908"/><rect x="202" y="162" width="12" height="4" fill="#2c2721"/><rect x="214" y="162" width="4" height="4" fill="#0b0908"/><rect x="154" y="166" width="20" height="4" fill="#0b0908"/><rect x="194" y="166" width="20" height="4" fill="#0b0908"/><rect x="158" y="170" width="12" height="4" fill="#0b0908"/><rect x="198" y="170" width="12" height="4" fill="#0b0908"/><rect x="460" y="-6" width="5" height="5" fill="#0b0908"/><rect x="505" y="-6" width="5" height="5" fill="#0b0908"/><rect x="455" y="-1" width="5" height="5" fill="#0b0908"/><rect x="460" y="-1" width="5" height="5" fill="#e8ddc8"/><rect x="465" y="-1" width="5" height="5" fill="#0b0908"/><rect x="500" y="-1" width="5" height="5" fill="#0b0908"/><rect x="505" y="-1" width="5" height="5" fill="#e8ddc8"/><rect x="510" y="-1" width="5" height="5" fill="#0b0908"/><rect x="455" y="4" width="5" height="5" fill="#0b0908"/><rect x="460" y="4" width="10" height="5" fill="#e8ddc8"/><rect x="470" y="4" width="30" height="5" fill="#0b0908"/><rect x="500" y="4" width="10" height="5" fill="#e8ddc8"/><rect x="510" y="4" width="5" height="5" fill="#0b0908"/><rect x="460" y="9" width="5" height="5" fill="#0b0908"/><rect x="465" y="9" width="40" height="5" fill="#9c4436"/><rect x="505" y="9" width="5" height="5" fill="#0b0908"/><rect x="455" y="14" width="5" height="5" fill="#0b0908"/><rect x="460" y="14" width="15" height="5" fill="#9c4436"/><rect x="475" y="14" width="20" height="5" fill="#71301f"/><rect x="495" y="14" width="15" height="5" fill="#9c4436"/><rect x="510" y="14" width="5" height="5" fill="#0b0908"/><rect x="455" y="19" width="5" height="5" fill="#0b0908"/><rect x="460" y="19" width="5" height="5" fill="#9c4436"/><rect x="465" y="19" width="35" height="5" fill="#71301f"/><rect x="500" y="19" width="10" height="5" fill="#9c4436"/><rect x="510" y="19" width="5" height="5" fill="#0b0908"/><rect x="455" y="24" width="5" height="5" fill="#0b0908"/><rect x="460" y="24" width="5" height="5" fill="#71301f"/><rect x="465" y="24" width="10" height="5" fill="#0b0908"/><rect x="475" y="24" width="15" height="5" fill="#71301f"/><rect x="490" y="24" width="10" height="5" fill="#0b0908"/><rect x="500" y="24" width="5" height="5" fill="#71301f"/><rect x="505" y="24" width="5" height="5" fill="#9c4436"/><rect x="510" y="24" width="5" height="5" fill="#0b0908"/><rect x="460" y="29" width="5" height="5" fill="#0b0908"/><rect x="465" y="29" width="40" height="5" fill="#71301f"/><rect x="505" y="29" width="5" height="5" fill="#9c4436"/><rect x="510" y="29" width="5" height="5" fill="#0b0908"/><rect x="455" y="34" width="5" height="5" fill="#0b0908"/><rect x="460" y="34" width="5" height="5" fill="#9c4436"/><rect x="465" y="34" width="5" height="5" fill="#71301f"/><rect x="470" y="34" width="30" height="5" fill="#e8ddc8"/><rect x="500" y="34" width="5" height="5" fill="#71301f"/><rect x="505" y="34" width="5" height="5" fill="#9c4436"/><rect x="510" y="34" width="5" height="5" fill="#0b0908"/><rect x="455" y="39" width="5" height="5" fill="#0b0908"/><rect x="460" y="39" width="40" height="5" fill="#71301f"/><rect x="500" y="39" width="5" height="5" fill="#9c4436"/><rect x="505" y="39" width="5" height="5" fill="#0b0908"/><rect x="450" y="44" width="5" height="5" fill="#0b0908"/><rect x="455" y="44" width="15" height="5" fill="#9c4436"/><rect x="470" y="44" width="30" height="5" fill="#4a1d13"/><rect x="500" y="44" width="5" height="5" fill="#0b0908"/><rect x="445" y="49" width="5" height="5" fill="#0b0908"/><rect x="450" y="49" width="15" height="5" fill="#9c4436"/><rect x="465" y="49" width="20" height="5" fill="#71301f"/><rect x="485" y="49" width="15" height="5" fill="#9c4436"/><rect x="500" y="49" width="5" height="5" fill="#0b0908"/><rect x="400" y="54" width="15" height="5" fill="#0b0908"/><rect x="440" y="54" width="5" height="5" fill="#0b0908"/><rect x="445" y="54" width="15" height="5" fill="#9c4436"/><rect x="460" y="54" width="30" height="5" fill="#71301f"/><rect x="490" y="54" width="15" height="5" fill="#9c4436"/><rect x="505" y="54" width="5" height="5" fill="#0b0908"/><rect x="395" y="59" width="5" height="5" fill="#0b0908"/><rect x="400" y="59" width="5" height="5" fill="#3c4044"/><rect x="405" y="59" width="5" height="5" fill="#5a5f63"/><rect x="410" y="59" width="5" height="5" fill="#3c4044"/><rect x="415" y="59" width="20" height="5" fill="#0b0908"/><rect x="440" y="59" width="5" height="5" fill="#0b0908"/><rect x="445" y="59" width="10" height="5" fill="#9c4436"/><rect x="455" y="59" width="40" height="5" fill="#71301f"/><rect x="495" y="59" width="10" height="5" fill="#9c4436"/><rect x="505" y="59" width="5" height="5" fill="#0b0908"/><rect x="390" y="64" width="5" height="5" fill="#0b0908"/><rect x="395" y="64" width="5" height="5" fill="#3c4044"/><rect x="400" y="64" width="15" height="5" fill="#5a5f63"/><rect x="415" y="64" width="5" height="5" fill="#3c4044"/><rect x="420" y="64" width="15" height="5" fill="#9c4436"/><rect x="435" y="64" width="10" height="5" fill="#0b0908"/><rect x="445" y="64" width="10" height="5" fill="#9c4436"/><rect x="455" y="64" width="15" height="5" fill="#71301f"/><rect x="470" y="64" width="10" height="5" fill="#4a1d13"/><rect x="480" y="64" width="15" height="5" fill="#71301f"/><rect x="495" y="64" width="15" height="5" fill="#9c4436"/><rect x="510" y="64" width="5" height="5" fill="#0b0908"/><rect x="395" y="69" width="5" height="5" fill="#0b0908"/><rect x="400" y="69" width="5" height="5" fill="#3c4044"/><rect x="405" y="69" width="5" height="5" fill="#5a5f63"/><rect x="410" y="69" width="5" height="5" fill="#3c4044"/><rect x="415" y="69" width="5" height="5" fill="#0b0908"/><rect x="420" y="69" width="5" height="5" fill="#9c4436"/><rect x="425" y="69" width="5" height="5" fill="#71301f"/><rect x="430" y="69" width="5" height="5" fill="#9c4436"/><rect x="435" y="69" width="10" height="5" fill="#0b0908"/><rect x="445" y="69" width="10" height="5" fill="#9c4436"/><rect x="455" y="69" width="10" height="5" fill="#71301f"/><rect x="465" y="69" width="20" height="5" fill="#4a1d13"/><rect x="485" y="69" width="10" height="5" fill="#71301f"/><rect x="495" y="69" width="15" height="5" fill="#9c4436"/><rect x="510" y="69" width="5" height="5" fill="#0b0908"/><rect x="390" y="74" width="5" height="5" fill="#0b0908"/><rect x="395" y="74" width="5" height="5" fill="#3c4044"/><rect x="400" y="74" width="15" height="5" fill="#5a5f63"/><rect x="415" y="74" width="5" height="5" fill="#3c4044"/><rect x="420" y="74" width="5" height="5" fill="#9c4436"/><rect x="425" y="74" width="5" height="5" fill="#71301f"/><rect x="430" y="74" width="5" height="5" fill="#9c4436"/><rect x="435" y="74" width="10" height="5" fill="#0b0908"/><rect x="445" y="74" width="10" height="5" fill="#9c4436"/><rect x="455" y="74" width="15" height="5" fill="#71301f"/><rect x="470" y="74" width="10" height="5" fill="#4a1d13"/><rect x="480" y="74" width="15" height="5" fill="#71301f"/><rect x="495" y="74" width="15" height="5" fill="#9c4436"/><rect x="510" y="74" width="5" height="5" fill="#0b0908"/><rect x="395" y="79" width="5" height="5" fill="#0b0908"/><rect x="400" y="79" width="5" height="5" fill="#3c4044"/><rect x="405" y="79" width="5" height="5" fill="#5a5f63"/><rect x="410" y="79" width="5" height="5" fill="#3c4044"/><rect x="415" y="79" width="5" height="5" fill="#0b0908"/><rect x="420" y="79" width="10" height="5" fill="#71301f"/><rect x="430" y="79" width="5" height="5" fill="#9c4436"/><rect x="435" y="79" width="10" height="5" fill="#0b0908"/><rect x="445" y="79" width="10" height="5" fill="#9c4436"/><rect x="455" y="79" width="40" height="5" fill="#71301f"/><rect x="495" y="79" width="10" height="5" fill="#9c4436"/><rect x="505" y="79" width="10" height="5" fill="#71301f"/><rect x="515" y="79" width="5" height="5" fill="#0b0908"/><rect x="390" y="84" width="5" height="5" fill="#0b0908"/><rect x="395" y="84" width="5" height="5" fill="#3c4044"/><rect x="400" y="84" width="15" height="5" fill="#5a5f63"/><rect x="415" y="84" width="5" height="5" fill="#3c4044"/><rect x="420" y="84" width="15" height="5" fill="#71301f"/><rect x="435" y="84" width="10" height="5" fill="#0b0908"/><rect x="445" y="84" width="60" height="5" fill="#c9a227"/><rect x="505" y="84" width="10" height="5" fill="#71301f"/><rect x="515" y="84" width="5" height="5" fill="#0b0908"/><rect x="395" y="89" width="10" height="5" fill="#0b0908"/><rect x="405" y="89" width="15" height="5" fill="#5a5f63"/><rect x="420" y="89" width="15" height="5" fill="#0b0908"/><rect x="440" y="89" width="5" height="5" fill="#0b0908"/><rect x="445" y="89" width="5" height="5" fill="#c9a227"/><rect x="450" y="89" width="10" height="5" fill="#8a6f18"/><rect x="460" y="89" width="10" height="5" fill="#c9a227"/><rect x="470" y="89" width="10" height="5" fill="#8a6f18"/><rect x="480" y="89" width="10" height="5" fill="#c9a227"/><rect x="490" y="89" width="10" height="5" fill="#8a6f18"/><rect x="500" y="89" width="5" height="5" fill="#c9a227"/><rect x="505" y="89" width="10" height="5" fill="#0b0908"/><rect x="400" y="94" width="5" height="5" fill="#0b0908"/><rect x="405" y="94" width="5" height="5" fill="#3c4044"/><rect x="410" y="94" width="5" height="5" fill="#5a5f63"/><rect x="415" y="94" width="5" height="5" fill="#3c4044"/><rect x="420" y="94" width="5" height="5" fill="#0b0908"/><rect x="440" y="94" width="5" height="5" fill="#0b0908"/><rect x="445" y="94" width="5" height="5" fill="#c9a227"/><rect x="450" y="94" width="5" height="5" fill="#8a6f18"/><rect x="455" y="94" width="10" height="5" fill="#c9a227"/><rect x="465" y="94" width="10" height="5" fill="#8a6f18"/><rect x="475" y="94" width="10" height="5" fill="#c9a227"/><rect x="485" y="94" width="10" height="5" fill="#8a6f18"/><rect x="495" y="94" width="10" height="5" fill="#c9a227"/><rect x="505" y="94" width="5" height="5" fill="#0b0908"/><rect x="400" y="99" width="5" height="5" fill="#0b0908"/><rect x="405" y="99" width="5" height="5" fill="#3c4044"/><rect x="410" y="99" width="5" height="5" fill="#5a5f63"/><rect x="415" y="99" width="5" height="5" fill="#3c4044"/><rect x="420" y="99" width="5" height="5" fill="#0b0908"/><rect x="445" y="99" width="5" height="5" fill="#0b0908"/><rect x="450" y="99" width="15" height="5" fill="#9c4436"/><rect x="465" y="99" width="25" height="5" fill="#71301f"/><rect x="490" y="99" width="10" height="5" fill="#9c4436"/><rect x="500" y="99" width="5" height="5" fill="#0b0908"/><rect x="400" y="104" width="5" height="5" fill="#0b0908"/><rect x="405" y="104" width="5" height="5" fill="#3c4044"/><rect x="410" y="104" width="5" height="5" fill="#5a5f63"/><rect x="415" y="104" width="5" height="5" fill="#3c4044"/><rect x="420" y="104" width="5" height="5" fill="#0b0908"/><rect x="450" y="104" width="50" height="5" fill="#0b0908"/><rect x="405" y="109" width="15" height="5" fill="#0b0908"/><rect x="440" y="129" width="20" height="5" fill="#0b0908"/><rect x="475" y="129" width="20" height="5" fill="#0b0908"/><rect x="435" y="134" width="5" height="5" fill="#0b0908"/><rect x="440" y="134" width="20" height="5" fill="#9c4436"/><rect x="460" y="134" width="5" height="5" fill="#0b0908"/><rect x="470" y="134" width="5" height="5" fill="#0b0908"/><rect x="475" y="134" width="20" height="5" fill="#9c4436"/><rect x="495" y="134" width="5" height="5" fill="#0b0908"/><rect x="435" y="139" width="5" height="5" fill="#0b0908"/><rect x="440" y="139" width="5" height="5" fill="#9c4436"/><rect x="445" y="139" width="10" height="5" fill="#71301f"/><rect x="455" y="139" width="5" height="5" fill="#9c4436"/><rect x="460" y="139" width="5" height="5" fill="#0b0908"/><rect x="470" y="139" width="5" height="5" fill="#0b0908"/><rect x="475" y="139" width="5" height="5" fill="#9c4436"/><rect x="480" y="139" width="10" height="5" fill="#71301f"/><rect x="490" y="139" width="5" height="5" fill="#9c4436"/><rect x="495" y="139" width="5" height="5" fill="#0b0908"/><rect x="435" y="144" width="5" height="5" fill="#0b0908"/><rect x="440" y="144" width="5" height="5" fill="#9c4436"/><rect x="445" y="144" width="10" height="5" fill="#71301f"/><rect x="455" y="144" width="5" height="5" fill="#9c4436"/><rect x="460" y="144" width="5" height="5" fill="#0b0908"/><rect x="470" y="144" width="5" height="5" fill="#0b0908"/><rect x="475" y="144" width="5" height="5" fill="#9c4436"/><rect x="480" y="144" width="10" height="5" fill="#71301f"/><rect x="490" y="144" width="5" height="5" fill="#9c4436"/><rect x="495" y="144" width="5" height="5" fill="#0b0908"/><rect x="435" y="149" width="5" height="5" fill="#0b0908"/><rect x="440" y="149" width="5" height="5" fill="#9c4436"/><rect x="445" y="149" width="15" height="5" fill="#71301f"/><rect x="460" y="149" width="5" height="5" fill="#0b0908"/><rect x="470" y="149" width="5" height="5" fill="#0b0908"/><rect x="475" y="149" width="5" height="5" fill="#9c4436"/><rect x="480" y="149" width="15" height="5" fill="#71301f"/><rect x="495" y="149" width="5" height="5" fill="#0b0908"/><rect x="435" y="154" width="5" height="5" fill="#0b0908"/><rect x="440" y="154" width="20" height="5" fill="#4a1d13"/><rect x="460" y="154" width="5" height="5" fill="#0b0908"/><rect x="470" y="154" width="5" height="5" fill="#0b0908"/><rect x="475" y="154" width="20" height="5" fill="#4a1d13"/><rect x="495" y="154" width="5" height="5" fill="#0b0908"/><rect x="440" y="159" width="20" height="5" fill="#0b0908"/><rect x="475" y="159" width="20" height="5" fill="#0b0908"/><rect x="320" y="120" width="3" height="3" fill="#ffd98a"/><rect x="309" y="125" width="3" height="3" fill="#ffd98a"/><rect x="316" y="109" width="3" height="3" fill="#ffd98a"/><rect x="324" y="131" width="3" height="3" fill="#ffd98a"/><rect x="298" y="117" width="3" height="3" fill="#ffd98a"/><rect x="332" y="109" width="3" height="3" fill="#ffd98a"/><rect x="309" y="142" width="3" height="3" fill="#ffd98a"/><rect x="303" y="97" width="3" height="3" fill="#ffd98a"/><rect x="342" y="130" width="3" height="3" fill="#ffd98a"/><rect x="285" y="132" width="3" height="3" fill="#ffd98a"/><rect x="330" y="88" width="3" height="3" fill="#ffd98a"/><rect x="326" y="156" width="3" height="3" fill="#ffd98a"/><rect x="309" y="116" width="3" height="3" fill="#ffd98a"/><rect x="325" y="118" width="3" height="3" fill="#ffd98a"/><rect x="308" y="131" width="3" height="3" fill="#ffd98a"/><rect x="313" y="104" width="3" height="3" fill="#ffd98a"/><rect x="60" y="28" width="150" height="6" fill="#221c18"/><rect x="60" y="28" width="108" height="6" fill="#e4dccb"/><rect x="350" y="28" width="150" height="6" fill="#221c18"/><rect x="350" y="28" width="60" height="6" fill="#c1372b"/></svg>
